#Comment line ignore any data following # character 
#Hierarchical Translation and Rotation (.htr) file 
[Header]	
#Header keywords are followed by a single value 
FileType HTR		#Single word string
DataType HTRS		#Translation followed by rotation and scale data
FileVersion 1		#integer
NumSegments 84		#integer
NumFrames 2		#integer
DataFrameRate 30		#integer, data frame rate in this file
EulerRotationOrder ZYX
CalibrationUnits mm
RotationUnits Degrees
GlobalAxisofGravity Y
BoneLengthAxis Y
ScaleFactor 1.00
[SegmentNames&Hierarchy]
#CHILD	PARENT
MASTER GLOBAL
root MASTER
chest root
L_mid_tent01 root
R_mid_tent01 root
spine01 root
Bip01_Neck chest
L_humerus chest
R_humerus chest
weapon_bone chest
Bip01_Head Bip01_Neck
eye_left_bone Bip01_Head
eye_right_bone Bip01_Head
L_forearm L_humerus
L_front_hand L_forearm
L_weapon_bone L_forearm
L_front_hand01_01 L_front_hand
L_front_hand02_01 L_front_hand
L_front_hand03_01 L_front_hand
L_front_hand01_02 L_front_hand01_01
L_front_hand02_02 L_front_hand02_01
L_front_hand03_02 L_front_hand03_01
R_forearm R_humerus
R_front_hand R_forearm
R_weapon_bone R_forearm
R_front_hand01_01 R_front_hand
R_front_hand02_01 R_front_hand
R_front_hand03_01 R_front_hand
R_front_hand01_02 R_front_hand01_01
R_front_hand02_02 R_front_hand02_01
R_front_hand03_02 R_front_hand03_01
null_rope01_connect L_mid_tent01
Rope1_Seg01 null_rope01_connect
Rope1_Seg02 Rope1_Seg01
Rope1_Seg03 Rope1_Seg02
Rope1_Seg04 Rope1_Seg03
Rope1_Seg05 Rope1_Seg04
Rope1_Seg06 Rope1_Seg05
Rope1_Seg07 Rope1_Seg06
Rope1_Seg09 Rope1_Seg07
L_mid_hand01 Rope1_Seg09
L_mid_hand02 Rope1_Seg09
L_mid_hand03 Rope1_Seg09
null_rope02_connect R_mid_tent01
Rope2_Seg01 null_rope02_connect
Rope2_Seg02 Rope2_Seg01
Rope2_Seg03 Rope2_Seg02
Rope2_Seg04 Rope2_Seg03
Rope2_Seg05 Rope2_Seg04
Rope2_Seg06 Rope2_Seg05
Rope2_Seg07 Rope2_Seg06
Rope2_Seg09 Rope2_Seg07
R_mid_hand01 Rope2_Seg09
R_mid_hand02 Rope2_Seg09
R_mid_hand03 Rope2_Seg09
spine02 spine01
spine03 spine02
pelvis spine03
null_rope03_connect pelvis
null_rope04_connect pelvis
Rope3_Seg01 null_rope03_connect
Rope3_Seg02 Rope3_Seg01
Rope3_Seg03 Rope3_Seg02
Rope3_Seg04 Rope3_Seg03
Rope3_Seg05 Rope3_Seg04
Rope3_Seg06 Rope3_Seg05
Rope3_Seg07 Rope3_Seg06
Rope3_Seg08 Rope3_Seg07
Rope3_Seg09 Rope3_Seg08
R_rear_hand01 Rope3_Seg09
R_rear_hand02 Rope3_Seg09
R_rear_hand03 Rope3_Seg09
Rope4_Seg01 null_rope04_connect
Rope4_Seg02 Rope4_Seg01
Rope4_Seg03 Rope4_Seg02
Rope4_Seg04 Rope4_Seg03
Rope4_Seg05 Rope4_Seg04
Rope4_Seg06 Rope4_Seg05
Rope4_Seg07 Rope4_Seg06
Rope4_Seg08 Rope4_Seg07
Rope4_Seg09 Rope4_Seg08
L_rear_hand01 Rope4_Seg09
L_rear_hand02 Rope4_Seg09
L_rear_hand03 Rope4_Seg09
[BasePosition]
#SegmentName Tx, Ty, Tz, Rx, Ry, Rz, BoneLength
MASTER 0.000000 0.000000 0.000000 -90.000000 0.000000 0.000000 10.000000 
root 0.000000 0.000000 0.000000 0.000000 0.000000 0.000000 10.000000 
chest 0.000000 0.000000 0.000000 0.000000 0.000000 0.000000 10.000000 
L_mid_tent01 0.000000 0.000000 0.000000 0.000000 0.000000 0.000000 10.000000 
R_mid_tent01 0.000000 0.000000 0.000000 0.000000 0.000000 0.000000 10.000000 
spine01 0.000000 0.000000 0.000000 0.000000 0.000000 0.000000 10.000000 
Bip01_Neck 0.000000 0.000000 0.000000 0.000000 0.000000 0.000000 10.000000 
L_humerus 0.000000 0.000000 0.000000 0.000000 0.000000 0.000000 10.000000 
R_humerus 0.000000 0.000000 0.000000 0.000000 0.000000 0.000000 10.000000 
weapon_bone 0.000000 0.000000 0.000000 0.000000 0.000000 0.000000 10.000000 
Bip01_Head 0.000000 0.000000 0.000000 0.000000 0.000000 0.000000 10.000000 
eye_left_bone 0.000000 0.000000 0.000000 0.000000 0.000000 0.000000 10.000000 
eye_right_bone 0.000000 0.000000 0.000000 0.000000 0.000000 0.000000 10.000000 
L_forearm 0.000000 0.000000 0.000000 0.000000 0.000000 0.000000 10.000000 
L_front_hand 0.000000 0.000000 0.000000 0.000000 0.000000 0.000000 10.000000 
L_weapon_bone 0.000000 0.000000 0.000000 0.000000 0.000000 0.000000 10.000000 
L_front_hand01_01 0.000000 0.000000 0.000000 0.000000 0.000000 0.000000 10.000000 
L_front_hand02_01 0.000000 0.000000 0.000000 0.000000 0.000000 0.000000 10.000000 
L_front_hand03_01 0.000000 0.000000 0.000000 0.000000 0.000000 0.000000 10.000000 
L_front_hand01_02 0.000000 0.000000 0.000000 0.000000 0.000000 0.000000 10.000000 
L_front_hand02_02 0.000000 0.000000 0.000000 0.000000 0.000000 0.000000 10.000000 
L_front_hand03_02 0.000000 0.000000 0.000000 0.000000 0.000000 0.000000 10.000000 
R_forearm 0.000000 0.000000 0.000000 0.000000 0.000000 0.000000 10.000000 
R_front_hand 0.000000 0.000000 0.000000 0.000000 0.000000 0.000000 10.000000 
R_weapon_bone 0.000000 0.000000 0.000000 0.000000 0.000000 0.000000 10.000000 
R_front_hand01_01 0.000000 0.000000 0.000000 0.000000 0.000000 0.000000 10.000000 
R_front_hand02_01 0.000000 0.000000 0.000000 0.000000 0.000000 0.000000 10.000000 
R_front_hand03_01 0.000000 0.000000 0.000000 0.000000 0.000000 0.000000 10.000000 
R_front_hand01_02 0.000000 0.000000 0.000000 0.000000 0.000000 0.000000 10.000000 
R_front_hand02_02 0.000000 0.000000 0.000000 0.000000 0.000000 0.000000 10.000000 
R_front_hand03_02 0.000000 0.000000 0.000000 0.000000 0.000000 0.000000 10.000000 
null_rope01_connect 0.000000 0.000000 0.000000 0.000000 0.000000 0.000000 10.000000 
Rope1_Seg01 0.000000 0.000000 0.000000 0.000000 0.000000 0.000000 10.000000 
Rope1_Seg02 0.000000 0.000000 0.000000 0.000000 0.000000 0.000000 10.000000 
Rope1_Seg03 0.000000 0.000000 0.000000 0.000000 0.000000 0.000000 10.000000 
Rope1_Seg04 0.000000 0.000000 0.000000 0.000000 0.000000 0.000000 10.000000 
Rope1_Seg05 0.000000 0.000000 0.000000 0.000000 0.000000 0.000000 10.000000 
Rope1_Seg06 0.000000 0.000000 0.000000 0.000000 0.000000 0.000000 10.000000 
Rope1_Seg07 0.000000 0.000000 0.000000 0.000000 0.000000 0.000000 10.000000 
Rope1_Seg09 0.000000 0.000000 0.000000 0.000000 0.000000 0.000000 10.000000 
L_mid_hand01 0.000000 0.000000 0.000000 0.000000 0.000000 0.000000 10.000000 
L_mid_hand02 0.000000 0.000000 0.000000 0.000000 0.000000 0.000000 10.000000 
L_mid_hand03 0.000000 0.000000 0.000000 0.000000 0.000000 0.000000 10.000000 
null_rope02_connect 0.000000 0.000000 0.000000 0.000000 0.000000 0.000000 10.000000 
Rope2_Seg01 0.000000 0.000000 0.000000 0.000000 0.000000 0.000000 10.000000 
Rope2_Seg02 0.000000 0.000000 0.000000 0.000000 0.000000 0.000000 10.000000 
Rope2_Seg03 0.000000 0.000000 0.000000 0.000000 0.000000 0.000000 10.000000 
Rope2_Seg04 0.000000 0.000000 0.000000 0.000000 0.000000 0.000000 10.000000 
Rope2_Seg05 0.000000 0.000000 0.000000 0.000000 0.000000 0.000000 10.000000 
Rope2_Seg06 0.000000 0.000000 0.000000 0.000000 0.000000 0.000000 10.000000 
Rope2_Seg07 0.000000 0.000000 0.000000 0.000000 0.000000 0.000000 10.000000 
Rope2_Seg09 0.000000 0.000000 0.000000 0.000000 0.000000 0.000000 10.000000 
R_mid_hand01 0.000000 0.000000 0.000000 0.000000 0.000000 0.000000 10.000000 
R_mid_hand02 0.000000 0.000000 0.000000 0.000000 0.000000 0.000000 10.000000 
R_mid_hand03 0.000000 0.000000 0.000000 0.000000 0.000000 0.000000 10.000000 
spine02 0.000000 0.000000 0.000000 0.000000 0.000000 0.000000 10.000000 
spine03 0.000000 0.000000 0.000000 0.000000 0.000000 0.000000 10.000000 
pelvis 0.000000 0.000000 0.000000 0.000000 0.000000 0.000000 10.000000 
null_rope03_connect 0.000000 0.000000 0.000000 0.000000 0.000000 0.000000 10.000000 
null_rope04_connect 0.000000 0.000000 0.000000 0.000000 0.000000 0.000000 10.000000 
Rope3_Seg01 0.000000 0.000000 0.000000 0.000000 0.000000 0.000000 10.000000 
Rope3_Seg02 0.000000 0.000000 0.000000 0.000000 0.000000 0.000000 10.000000 
Rope3_Seg03 0.000000 0.000000 0.000000 0.000000 0.000000 0.000000 10.000000 
Rope3_Seg04 0.000000 0.000000 0.000000 0.000000 0.000000 0.000000 10.000000 
Rope3_Seg05 0.000000 0.000000 0.000000 0.000000 0.000000 0.000000 10.000000 
Rope3_Seg06 0.000000 0.000000 0.000000 0.000000 0.000000 0.000000 10.000000 
Rope3_Seg07 0.000000 0.000000 0.000000 0.000000 0.000000 0.000000 10.000000 
Rope3_Seg08 0.000000 0.000000 0.000000 0.000000 0.000000 0.000000 10.000000 
Rope3_Seg09 0.000000 0.000000 0.000000 0.000000 0.000000 0.000000 10.000000 
R_rear_hand01 0.000000 0.000000 0.000000 0.000000 0.000000 0.000000 10.000000 
R_rear_hand02 0.000000 0.000000 0.000000 0.000000 0.000000 0.000000 10.000000 
R_rear_hand03 0.000000 0.000000 0.000000 0.000000 0.000000 0.000000 10.000000 
Rope4_Seg01 0.000000 0.000000 0.000000 0.000000 0.000000 0.000000 10.000000 
Rope4_Seg02 0.000000 0.000000 0.000000 0.000000 0.000000 0.000000 10.000000 
Rope4_Seg03 0.000000 0.000000 0.000000 0.000000 0.000000 0.000000 10.000000 
Rope4_Seg04 0.000000 0.000000 0.000000 0.000000 0.000000 0.000000 10.000000 
Rope4_Seg05 0.000000 0.000000 0.000000 0.000000 0.000000 0.000000 10.000000 
Rope4_Seg06 0.000000 0.000000 0.000000 0.000000 0.000000 0.000000 10.000000 
Rope4_Seg07 0.000000 0.000000 0.000000 0.000000 0.000000 0.000000 10.000000 
Rope4_Seg08 0.000000 0.000000 0.000000 0.000000 0.000000 0.000000 10.000000 
Rope4_Seg09 0.000000 0.000000 0.000000 0.000000 0.000000 0.000000 10.000000 
L_rear_hand01 0.000000 0.000000 0.000000 0.000000 0.000000 0.000000 10.000000 
L_rear_hand02 0.000000 0.000000 0.000000 0.000000 0.000000 0.000000 10.000000 
L_rear_hand03 0.000000 0.000000 0.000000 0.000000 0.000000 0.000000 10.000000 
#Beginning of Data. Separated by tabs
#Fr	Tx	Ty	Tz	Rx	Ry	Rz	SF
[MASTER]
20 0.000000 0.000000 0.000000 0.001660 0.001660 0.001660 0.000000
21 0.000000 0.000000 0.000000 0.001660 0.001660 0.001660 0.000000
[root]
20 -37.552315 -52.134617 1496.072144 -91.629700 -27.676081 -90.148109 1497.451172
21 -37.882362 -51.398724 1502.621582 -91.629700 -27.676081 -90.148109 1503.977417
[chest]
20 -84.512650 -34.090519 0.000000 -1.888051 0.943089 -178.206696 91.129311
21 -84.512650 -34.090519 0.000000 -1.888050 0.943089 -178.206696 91.129311
[L_mid_tent01]
20 27.299587 22.177631 -249.918304 3.650624 34.966393 81.132820 252.381226
21 27.299593 22.177635 -249.918304 3.862623 36.229198 81.347595 252.381226
[R_mid_tent01]
20 23.228794 24.509907 226.238495 160.641830 -45.992542 87.341873 228.744751
21 23.228794 24.509907 226.238495 160.432022 -47.061226 87.899765 228.744751
[spine01]
20 -0.361383 -0.195265 0.000000 0.001845 0.001451 13.654368 0.410763
21 -0.361383 -0.195265 0.000000 0.001845 0.001451 13.654368 0.410763
[Bip01_Neck]
20 165.484543 71.581718 0.000119 176.643677 -1.657967 43.431911 180.302734
21 165.484543 71.581718 0.000119 176.643677 -1.657967 43.431911 180.302734
[L_humerus]
20 -13.983130 -135.272980 -120.471481 156.317398 70.210068 -112.010254 181.680161
21 -13.983130 -135.272980 -120.471481 156.317398 70.210068 -112.010254 181.680161
[R_humerus]
20 -13.983309 -135.273102 125.287651 -172.382263 -66.903831 -92.553993 184.909012
21 -13.983309 -135.273102 125.287651 -172.382263 -66.903831 -92.553993 184.909012
[weapon_bone]
20 235.964890 -300.705902 0.000000 0.000000 -89.951546 -128.212341 382.234833
21 235.964890 -300.705902 0.000000 0.000000 -89.951546 -128.212341 382.234833
[Bip01_Head]
20 213.559494 185.395050 15.912969 5.200446 6.151311 -43.834991 283.252899
21 213.520966 185.502350 14.528252 5.200446 6.151311 -43.834991 283.219696
[eye_left_bone]
20 -24.626970 125.451866 -64.772606 0.000000 -90.000000 -99.840431 143.318359
21 -24.626970 125.451866 -64.772606 0.000000 -90.000000 -99.840431 143.318359
[eye_right_bone]
20 -24.626970 125.451866 64.327362 0.000000 -89.965736 80.156380 143.117676
21 -24.626970 125.451866 64.327362 0.000000 -89.965736 80.156380 143.117676
[L_forearm]
20 322.776093 0.000000 -0.000119 0.000119 -0.002344 -95.807457 322.776093
21 322.776093 0.000000 -0.000119 0.000119 -0.002344 -95.807457 322.776093
[L_front_hand]
20 241.149185 -0.042021 -3.300071 -178.667953 -1.835447 -27.422342 241.171753
21 241.149185 -0.042021 -3.300071 -178.667953 -1.835447 -27.422350 241.171753
[L_weapon_bone]
20 156.183838 0.000000 0.000000 0.000014 0.000007 0.000001 156.183838
21 156.183838 0.000000 0.000000 0.000014 0.000007 0.000001 156.183838
[L_front_hand01_01]
20 86.095154 20.947098 -0.655860 -0.299135 -0.518030 67.911942 88.609184
21 86.095154 20.947098 -0.655860 -0.306535 -0.513312 68.646957 88.609184
[L_front_hand02_01]
20 86.935165 -11.437475 24.513514 144.114838 -56.047676 -49.250378 91.046425
21 86.935165 -11.437475 24.513514 145.004044 -56.473930 -50.323578 91.046425
[L_front_hand03_01]
20 86.637497 -14.123976 -20.424902 -144.319244 54.262909 -51.171417 90.126129
21 86.637497 -14.123976 -20.424902 -145.151382 54.687630 -52.198425 90.126129
[L_front_hand01_02]
20 71.020905 -0.000179 0.000030 0.000317 -0.002326 -105.501534 71.020905
21 71.020905 -0.000179 0.000030 0.000317 -0.002326 -105.540344 71.020905
[L_front_hand02_02]
20 71.020927 -0.000119 0.000060 0.000317 -0.002326 -105.501534 71.020927
21 71.020927 -0.000119 0.000060 0.000317 -0.002326 -105.540344 71.020927
[L_front_hand03_02]
20 71.020905 -0.000060 0.000060 0.000317 -0.002326 -105.501534 71.020905
21 71.020905 -0.000060 0.000060 0.000317 -0.002326 -105.540344 71.020905
[R_forearm]
20 322.776428 -0.000060 0.000030 0.209504 0.012586 -94.339050 322.776428
21 322.776428 -0.000060 0.000030 0.209504 0.012586 -94.339050 322.776428
[R_front_hand]
20 238.847015 -0.006795 2.210259 -2.635298 -10.645461 -26.312506 238.857239
21 238.847015 -0.006795 2.210259 -2.635298 -10.645461 -26.312506 238.857239
[R_weapon_bone]
20 155.664093 0.002503 -0.000030 0.003487 0.001180 -90.988930 155.664078
21 155.664093 0.002503 -0.000030 0.003487 0.001180 -90.988930 155.664078
[R_front_hand01_01]
20 87.624611 14.231146 22.918642 -142.976746 -55.478233 47.985172 91.683487
21 87.624611 14.231146 22.918642 -144.694336 -56.325737 50.060089 91.683487
[R_front_hand02_01]
20 89.356956 14.367283 -19.491137 143.617325 53.874443 50.539886 92.579636
21 89.356956 14.367283 -19.491137 145.240677 54.711182 52.540722 92.579636
[R_front_hand03_01]
20 87.286232 -22.307278 -0.143439 0.095752 -0.445027 -67.192543 90.091743
21 87.286232 -22.307278 -0.143439 0.105409 -0.441003 -68.629555 90.091743
[R_front_hand01_02]
20 71.020905 0.000060 0.000119 0.002323 -0.000334 106.381714 71.020905
21 71.020905 0.000060 0.000119 0.002323 -0.000334 106.381714 71.020905
[R_front_hand02_02]
20 71.020844 -0.000030 -0.000119 0.002323 -0.000334 106.381714 71.020836
21 71.020844 -0.000030 -0.000119 0.002323 -0.000334 106.381714 71.020836
[R_front_hand03_02]
20 71.020905 0.000000 0.000030 0.002323 -0.000334 106.381714 71.020905
21 71.020905 0.000000 0.000030 0.002323 -0.000334 106.381714 71.020905
[null_rope01_connect]
20 328.732483 0.000000 -0.000238 -137.535049 -53.199326 175.326813 328.732483
21 328.732483 0.000000 -0.000238 -137.564545 -51.925488 175.258728 328.732483
[Rope1_Seg01]
20 -0.000038 -0.000114 0.000107 112.006706 51.350464 135.575439 0.000162
21 -0.000038 -0.000114 0.000108 109.567802 52.760918 131.985031 0.000162
[Rope1_Seg02]
20 139.999863 -0.000179 0.000000 -0.301812 -4.213036 5.820482 139.999863
21 139.999863 -0.000179 0.000000 -0.309411 -3.707116 5.932466 139.999863
[Rope1_Seg03]
20 139.999924 0.000060 -0.000060 -0.446770 -6.187461 9.287991 139.999924
21 139.999924 0.000060 -0.000060 -0.291321 -5.037493 9.237288 139.999924
[Rope1_Seg04]
20 139.999924 -0.000060 -0.000119 0.743530 -7.077830 16.879829 139.999924
21 139.999924 -0.000060 -0.000119 1.341182 -5.003002 16.276369 139.999924
[Rope1_Seg05]
20 139.999832 0.000119 -0.000060 -11.785150 -24.207178 15.887148 139.999832
21 139.999832 0.000119 -0.000060 -12.079798 -25.146233 16.877602 139.999832
[Rope1_Seg06]
20 139.999954 0.000119 -0.000060 -11.516727 -11.272107 2.840274 139.999954
21 139.999954 0.000119 -0.000060 -11.360679 -11.523256 3.419614 139.999954
[Rope1_Seg07]
20 139.999985 0.000060 0.000000 -6.466175 -4.952548 0.896413 139.999985
21 139.999985 0.000060 0.000000 -6.438856 -4.988409 1.055914 139.999985
[Rope1_Seg09]
20 121.602913 0.000119 -0.000089 -89.793175 -1.359789 0.847147 121.602913
21 121.602913 0.000119 -0.000089 -89.793175 -1.359789 0.847147 121.602913
[L_mid_hand01]
20 103.859421 1.038730 8.195221 130.544373 -67.584534 -38.866943 104.187431
21 103.859421 1.038730 8.195221 130.544373 -67.584534 -38.866943 104.187431
[L_mid_hand02]
20 105.572853 -4.139662 -10.864139 -168.923172 43.409309 -73.498886 106.211075
21 105.572853 -4.139662 -10.864139 -168.923172 43.409309 -73.498886 106.211075
[L_mid_hand03]
20 104.641464 17.579376 -3.913581 -6.012627 17.808178 74.893677 106.179977
21 104.641464 17.579376 -3.913581 -6.012627 17.808174 74.893669 106.179977
[null_rope02_connect]
20 328.732849 0.000179 -0.000119 -123.001297 42.503460 18.700932 328.732849
21 328.732849 0.000179 -0.000119 -123.736763 41.490059 18.218470 328.732849
[Rope2_Seg01]
20 -0.000052 0.000134 0.000153 -53.769913 44.568588 44.928398 0.000209
21 -0.000051 0.000134 0.000153 -53.273533 46.294949 46.313602 0.000209
[Rope2_Seg02]
20 139.999741 -0.000060 -0.000119 -0.218747 -4.867484 2.738755 139.999756
21 139.999741 -0.000060 -0.000119 -0.152587 -5.319731 2.573596 139.999756
[Rope2_Seg03]
20 140.000107 0.000030 0.000000 -0.397918 -7.496392 4.658190 140.000107
21 140.000107 0.000030 0.000000 -0.336873 -7.791643 4.313554 140.000107
[Rope2_Seg04]
20 139.999802 0.000000 -0.000060 -0.858077 -14.856475 11.439051 139.999802
21 139.999802 0.000000 -0.000060 -1.122035 -16.867683 10.125553 139.999802
[Rope2_Seg05]
20 139.999985 -0.000060 0.000119 -7.988784 -31.397913 6.736253 139.999985
21 139.999985 -0.000060 0.000119 -7.727215 -29.274389 5.614132 139.999985
[Rope2_Seg06]
20 139.999893 -0.000030 -0.000119 -3.893984 -7.401358 0.298251 139.999893
21 139.999893 -0.000030 -0.000119 -3.542524 -6.958975 0.341057 139.999893
[Rope2_Seg07]
20 139.999893 0.000060 -0.000060 -2.119549 -3.409842 0.114245 139.999893
21 139.999893 0.000060 -0.000060 -2.054539 -3.316177 0.095783 139.999893
[Rope2_Seg09]
20 121.338966 0.000089 -0.000060 33.793236 -1.359788 -0.847141 121.338966
21 121.338966 0.000089 -0.000060 33.793236 -1.359788 -0.847141 121.338966
[R_mid_hand01]
20 104.680779 11.144459 -10.335981 -17.390701 44.882233 68.793839 105.778534
21 104.680779 11.144459 -10.335981 -16.212061 45.237240 70.462852 105.778534
[R_mid_hand02]
20 104.070427 2.443552 8.231699 50.967751 -66.804413 37.227455 104.424065
21 104.070427 2.443552 8.231699 49.067371 -67.749794 39.286461 104.424065
[R_mid_hand03]
20 106.028137 -11.221827 -5.996406 -176.756866 15.486362 -75.308266 106.788818
21 106.028137 -11.221827 -5.996406 -177.101105 15.551026 -76.585571 106.788818
[spine02]
20 129.756927 0.001550 0.000119 -1.023899 -3.926965 6.770993 129.756927
21 129.756927 0.001550 0.000119 -1.023899 -3.926965 6.770993 129.756927
[spine03]
20 78.613846 0.087372 -4.898873 1.040681 4.146420 4.212376 78.766380
21 78.613846 0.087372 -4.898873 1.040681 4.146420 4.212376 78.766380
[pelvis]
20 169.435242 0.051022 0.000000 0.019518 -0.190233 -10.721436 169.435257
21 169.435242 0.051022 0.000000 0.019518 -0.190233 -10.721436 169.435257
[null_rope03_connect]
20 -1.257226 -2.466202 137.391083 -148.996323 -87.995132 -107.160522 137.418976
21 -1.257226 -2.466202 137.391083 -148.996323 -87.995132 -107.160522 137.418976
[null_rope04_connect]
20 -1.259640 -2.480268 -137.844437 -148.996323 -87.995132 -107.160522 137.872513
21 -1.259640 -2.480268 -137.844437 -148.996323 -87.995132 -107.160522 137.872513
[Rope3_Seg01]
20 0.000000 0.000000 0.000000 -138.590347 -46.328194 -73.245522 0.000000
21 0.000000 0.000000 0.000000 -137.670090 -46.002693 -74.454262 0.000000
[Rope3_Seg02]
20 139.999924 -0.000119 0.000060 -13.830955 3.293787 -34.224709 139.999924
21 139.999924 -0.000119 0.000060 -13.695587 2.867905 -35.178104 139.999924
[Rope3_Seg03]
20 139.999924 -0.000119 0.000119 -53.318268 11.478493 -43.409935 139.999924
21 139.999924 -0.000119 0.000119 -54.046314 10.614873 -43.738495 139.999924
[Rope3_Seg04]
20 139.999924 0.000119 0.000000 -28.898552 25.169933 -9.942679 139.999924
21 139.999924 0.000119 0.000000 -29.002890 24.917868 -9.464804 139.999924
[Rope3_Seg05]
20 139.999924 -0.000238 0.000060 -9.882257 32.957653 6.532268 139.999924
21 139.999924 -0.000238 0.000060 -9.549495 32.775059 7.451118 139.999924
[Rope3_Seg06]
20 139.999893 -0.000119 -0.000060 -0.248630 13.656776 5.443151 139.999893
21 139.999893 -0.000119 -0.000060 -0.194907 13.656980 5.808651 139.999893
[Rope3_Seg07]
20 139.999771 0.000060 -0.000119 0.619257 6.036491 2.411745 139.999771
21 139.999771 0.000060 -0.000119 0.632193 6.040524 2.561070 139.999771
[Rope3_Seg08]
20 139.999985 -0.000060 0.000000 0.704412 3.204437 1.243475 139.999985
21 139.999985 -0.000060 0.000000 0.706628 3.203950 1.322698 139.999985
[Rope3_Seg09]
20 90.185997 -0.000179 -0.000060 89.793228 -1.359877 -0.847183 90.185997
21 90.185997 -0.000179 -0.000060 89.793228 -1.359877 -0.847183 90.185997
[R_rear_hand01]
20 103.366196 -6.073594 -10.757982 -177.218140 24.518011 -72.727440 104.101845
21 103.366196 -6.073594 -10.757982 -177.714188 24.565962 -73.910950 104.101845
[R_rear_hand02]
20 100.509819 12.039542 -7.992327 -13.655097 36.621037 70.859306 101.543350
21 100.509819 12.039542 -7.992327 -12.874833 36.868488 72.167213 101.543350
[R_rear_hand03]
20 101.539970 5.215704 5.435467 72.467621 -70.792877 20.476612 101.819031
21 101.539970 5.215704 5.435467 71.484573 -71.816597 21.513800 101.819031
[Rope4_Seg01]
20 -0.000013 -0.000028 -0.000153 51.781422 -31.750023 -103.239952 0.000156
21 -0.000013 -0.000025 -0.000153 52.179016 -32.255142 -103.879723 0.000155
[Rope4_Seg02]
20 139.999985 0.000060 0.000119 16.408964 -50.710953 9.372492 139.999985
21 139.999985 0.000060 0.000119 15.996548 -49.055370 8.431958 139.999985
[Rope4_Seg03]
20 139.999924 0.000000 -0.000238 44.580097 -31.210245 17.297997 139.999924
21 139.999924 0.000000 -0.000238 46.106030 -32.549492 17.061392 139.999924
[Rope4_Seg04]
20 139.999985 0.000000 0.000119 23.608231 -2.987157 19.248697 139.999985
21 139.999985 0.000000 0.000119 24.294815 -2.937338 19.759428 139.999985
[Rope4_Seg05]
20 139.999802 -0.000060 -0.000119 20.862598 10.706482 37.172596 139.999802
21 139.999802 -0.000060 -0.000119 20.628153 11.464067 37.054390 139.999802
[Rope4_Seg06]
20 139.999924 0.000000 0.000060 4.077930 12.778045 19.231201 139.999924
21 139.999924 0.000000 0.000060 3.871619 12.760217 18.661116 139.999924
[Rope4_Seg07]
20 139.999802 0.000000 0.000000 0.075588 4.913452 6.800611 139.999802
21 139.999802 0.000000 0.000000 0.071929 4.893508 6.626837 139.999802
[Rope4_Seg08]
20 139.999924 0.000000 0.000119 -1.756945 2.441699 3.405646 139.999924
21 139.999924 0.000000 0.000119 -1.748474 2.447653 3.329016 139.999924
[Rope4_Seg09]
20 90.185791 0.000060 0.000060 -135.617828 2.228885 0.850567 90.185791
21 90.185791 0.000060 0.000060 -135.617828 2.228885 0.850567 90.185791
[L_rear_hand01]
20 101.696655 -8.392275 -7.654577 -12.874829 -36.868488 107.832764 102.329041
21 101.696655 -8.392275 -7.654577 -12.874829 -36.868488 107.832764 102.329041
[L_rear_hand02]
20 102.726799 -1.568258 5.773216 71.484581 71.816628 158.486160 102.900848
21 102.726799 -1.568258 5.773216 71.484581 71.816628 158.486160 102.900848
[L_rear_hand03]
20 104.552910 9.721220 -10.420293 -177.714203 -24.565960 -106.089035 105.519653
21 104.552910 9.721220 -10.420293 -177.714203 -24.565960 -106.089035 105.519653
